<?xml version="1.0" standalone="no"?><!DOCTYPE svg PUBLIC "-//W3C//DTD SVG 1.1//EN" "http://www.w3.org/Graphics/SVG/1.1/DTD/svg11.dtd"><svg t="1758448063454" class="icon" viewBox="0 0 1024 1024" version="1.1" xmlns="http://www.w3.org/2000/svg" p-id="5591" xmlns:xlink="http://www.w3.org/1999/xlink" width="1000" height="1000"><path d="M22.022887 304.77077C56.710445 137.220906 163.281886 43.858897 329.526167 15.673656c122.904033-20.863734 245.859265-21.119731 368.532901 0.563193 171.185017 30.258814 274.070106 129.047955 306.863287 299.157786 25.343677 131.479924 25.727672 264.34223-0.383995 395.694155-35.071553 166.423478-144.382159 269.154968-310.012047 297.23781-122.904033 20.863734-245.859265 21.119731-368.532901-0.563193C154.782795 977.504593 51.436912 873.774715 18.64373 703.664884c-26.623661-132.350313-24.063693-266.057408 3.404757-398.894114z" fill="#1296db" p-id="5592" data-spm-anchor-id="a313x.search_index.0.i0.25d03a81DuDnhv" class=""></path><path d="M502.323963 207.440811a19.122956 19.122956 0 0 1 19.404553 0l236.540984 137.419048c6.015923 3.481556 9.727876 9.932673 9.727876 16.895785v274.863695a19.686149 19.686149 0 0 1-9.727876 16.895785l-236.540984 137.470247A19.967745 19.967745 0 0 1 512.00064 793.596538a19.814147 19.814147 0 0 1-9.727876-2.611167l-236.540984-137.470247a19.455752 19.455752 0 0 1-9.727876-16.895785V361.730044c0-6.963111 3.763152-13.36303 9.727876-16.895785z m191.587958 209.302932a27.903644 27.903644 0 0 0-37.554721-9.983873L512.00064 488.34603l-144.30536-81.560561-2.892763-1.407982a27.903644 27.903644 0 0 0-34.661958 11.391855 26.726059 26.726059 0 0 0-2.790365 20.684536l0.998388 2.918363 1.587179 3.302358c2.431969 4.223946 5.990324 7.782301 10.342269 10.23987l143.895765 81.330163v160.868349l0.179198 3.07196c0.691191 6.067123 3.481556 11.77585 7.935898 16.127795 5.171134 5.094335 12.185445 7.935899 19.455752 7.884699 7.244708 0.0256 14.259018-2.815964 19.455752-7.8591l2.047974-2.30397 2.150373-2.995162c2.534368-4.172747 3.89115-9.011085 3.86555-13.951822v-160.586753l144.510158-81.662958 2.687966-1.740778a26.879657 26.879657 0 0 0 7.423905-35.353149z" fill="#FFFFFF" p-id="5593"></path></svg>